<mxfile host="app.diagrams.net" modified="2022-05-05T00:05:07.662Z" agent="5.0 (Windows NT 10.0; Win64; x64) AppleWebKit/537.36 (KHTML, like Gecko) Chrome/101.0.4951.41 Safari/537.36 Edg/101.0.1210.32" etag="QLErgg9QbnkY03zj_c0Z" version="15.0.6" type="github">
  <diagram id="C5RBs43oDa-KdzZeNtuy" name="Page-1">
    <mxGraphModel dx="2262" dy="2477" grid="1" gridSize="10" guides="1" tooltips="1" connect="1" arrows="1" fold="1" page="1" pageScale="1" pageWidth="827" pageHeight="1169" math="0" shadow="0">
      <root>
        <mxCell id="WIyWlLk6GJQsqaUBKTNV-0" />
        <mxCell id="WIyWlLk6GJQsqaUBKTNV-1" parent="WIyWlLk6GJQsqaUBKTNV-0" />
        <mxCell id="zkfFHV4jXpPFQw0GAbJ--0" value="Application" style="swimlane;fontStyle=0;align=center;verticalAlign=top;childLayout=stackLayout;horizontal=1;startSize=26;horizontalStack=0;resizeParent=1;resizeLast=0;collapsible=1;marginBottom=0;rounded=0;shadow=0;strokeWidth=1;" parent="WIyWlLk6GJQsqaUBKTNV-1" vertex="1">
          <mxGeometry x="220" y="120" width="160" height="138" as="geometry">
            <mxRectangle x="230" y="140" width="160" height="26" as="alternateBounds" />
          </mxGeometry>
        </mxCell>
        <mxCell id="zkfFHV4jXpPFQw0GAbJ--1" value="Name" style="text;align=left;verticalAlign=top;spacingLeft=4;spacingRight=4;overflow=hidden;rotatable=0;points=[[0,0.5],[1,0.5]];portConstraint=eastwest;" parent="zkfFHV4jXpPFQw0GAbJ--0" vertex="1">
          <mxGeometry y="26" width="160" height="26" as="geometry" />
        </mxCell>
        <mxCell id="zkfFHV4jXpPFQw0GAbJ--2" value="Description" style="text;align=left;verticalAlign=top;spacingLeft=4;spacingRight=4;overflow=hidden;rotatable=0;points=[[0,0.5],[1,0.5]];portConstraint=eastwest;rounded=0;shadow=0;html=0;" parent="zkfFHV4jXpPFQw0GAbJ--0" vertex="1">
          <mxGeometry y="52" width="160" height="26" as="geometry" />
        </mxCell>
        <mxCell id="zkfFHV4jXpPFQw0GAbJ--17" value="Role" style="swimlane;fontStyle=0;align=center;verticalAlign=top;childLayout=stackLayout;horizontal=1;startSize=26;horizontalStack=0;resizeParent=1;resizeLast=0;collapsible=1;marginBottom=0;rounded=0;shadow=0;strokeWidth=1;" parent="WIyWlLk6GJQsqaUBKTNV-1" vertex="1">
          <mxGeometry x="629" y="120" width="160" height="180" as="geometry">
            <mxRectangle x="550" y="140" width="160" height="26" as="alternateBounds" />
          </mxGeometry>
        </mxCell>
        <mxCell id="zkfFHV4jXpPFQw0GAbJ--18" value="Name" style="text;align=left;verticalAlign=top;spacingLeft=4;spacingRight=4;overflow=hidden;rotatable=0;points=[[0,0.5],[1,0.5]];portConstraint=eastwest;" parent="zkfFHV4jXpPFQw0GAbJ--17" vertex="1">
          <mxGeometry y="26" width="160" height="26" as="geometry" />
        </mxCell>
        <mxCell id="zkfFHV4jXpPFQw0GAbJ--19" value="Purpose" style="text;align=left;verticalAlign=top;spacingLeft=4;spacingRight=4;overflow=hidden;rotatable=0;points=[[0,0.5],[1,0.5]];portConstraint=eastwest;rounded=0;shadow=0;html=0;" parent="zkfFHV4jXpPFQw0GAbJ--17" vertex="1">
          <mxGeometry y="52" width="160" height="26" as="geometry" />
        </mxCell>
        <mxCell id="zkfFHV4jXpPFQw0GAbJ--26" value="" style="endArrow=open;shadow=0;strokeWidth=1;rounded=0;endFill=1;edgeStyle=elbowEdgeStyle;elbow=vertical;" parent="WIyWlLk6GJQsqaUBKTNV-1" source="zkfFHV4jXpPFQw0GAbJ--17" target="zkfFHV4jXpPFQw0GAbJ--0" edge="1">
          <mxGeometry x="0.5" y="41" relative="1" as="geometry">
            <mxPoint x="540" y="192" as="sourcePoint" />
            <mxPoint x="380" y="192" as="targetPoint" />
            <mxPoint x="-40" y="32" as="offset" />
            <Array as="points">
              <mxPoint x="450" y="200" />
            </Array>
          </mxGeometry>
        </mxCell>
        <mxCell id="zkfFHV4jXpPFQw0GAbJ--27" value="1..*" style="resizable=0;align=left;verticalAlign=bottom;labelBackgroundColor=none;fontSize=12;" parent="zkfFHV4jXpPFQw0GAbJ--26" connectable="0" vertex="1">
          <mxGeometry x="-1" relative="1" as="geometry">
            <mxPoint x="-28" y="1" as="offset" />
          </mxGeometry>
        </mxCell>
        <mxCell id="zkfFHV4jXpPFQw0GAbJ--28" value="1..1" style="resizable=0;align=right;verticalAlign=bottom;labelBackgroundColor=none;fontSize=12;" parent="zkfFHV4jXpPFQw0GAbJ--26" connectable="0" vertex="1">
          <mxGeometry x="1" relative="1" as="geometry">
            <mxPoint x="30" y="1" as="offset" />
          </mxGeometry>
        </mxCell>
        <mxCell id="zkfFHV4jXpPFQw0GAbJ--29" value="defines permissions for" style="text;html=1;resizable=0;points=[];;align=center;verticalAlign=middle;labelBackgroundColor=none;rounded=0;shadow=0;strokeWidth=1;fontSize=9;" parent="zkfFHV4jXpPFQw0GAbJ--26" vertex="1" connectable="0">
          <mxGeometry x="0.5" y="49" relative="1" as="geometry">
            <mxPoint x="28" y="-38" as="offset" />
          </mxGeometry>
        </mxCell>
        <mxCell id="bXi78o_w_3qV81OYHnH0-12" value="" style="endArrow=open;shadow=0;strokeWidth=1;rounded=0;endFill=1;edgeStyle=elbowEdgeStyle;elbow=vertical;" edge="1" parent="WIyWlLk6GJQsqaUBKTNV-1" source="bXi78o_w_3qV81OYHnH0-16" target="zkfFHV4jXpPFQw0GAbJ--0">
          <mxGeometry x="0.5" y="41" relative="1" as="geometry">
            <mxPoint x="610" y="420" as="sourcePoint" />
            <mxPoint x="738" y="420" as="targetPoint" />
            <mxPoint x="-40" y="32" as="offset" />
          </mxGeometry>
        </mxCell>
        <mxCell id="bXi78o_w_3qV81OYHnH0-13" value="0..*" style="resizable=0;align=left;verticalAlign=bottom;labelBackgroundColor=none;fontSize=12;" connectable="0" vertex="1" parent="bXi78o_w_3qV81OYHnH0-12">
          <mxGeometry x="-1" relative="1" as="geometry">
            <mxPoint x="-20" y="12" as="offset" />
          </mxGeometry>
        </mxCell>
        <mxCell id="bXi78o_w_3qV81OYHnH0-14" value="1..1" style="resizable=0;align=right;verticalAlign=bottom;labelBackgroundColor=none;fontSize=12;" connectable="0" vertex="1" parent="bXi78o_w_3qV81OYHnH0-12">
          <mxGeometry x="1" relative="1" as="geometry">
            <mxPoint x="-10" as="offset" />
          </mxGeometry>
        </mxCell>
        <mxCell id="bXi78o_w_3qV81OYHnH0-15" value="maps to" style="text;html=1;resizable=0;points=[];;align=center;verticalAlign=middle;labelBackgroundColor=none;rounded=0;shadow=0;strokeWidth=1;fontSize=9;" vertex="1" connectable="0" parent="bXi78o_w_3qV81OYHnH0-12">
          <mxGeometry x="0.5" y="49" relative="1" as="geometry">
            <mxPoint x="-19" y="-17" as="offset" />
          </mxGeometry>
        </mxCell>
        <mxCell id="bXi78o_w_3qV81OYHnH0-16" value="OIDC Client" style="swimlane;fontStyle=0;align=center;verticalAlign=top;childLayout=stackLayout;horizontal=1;startSize=26;horizontalStack=0;resizeParent=1;resizeLast=0;collapsible=1;marginBottom=0;rounded=0;shadow=0;strokeWidth=1;" vertex="1" parent="WIyWlLk6GJQsqaUBKTNV-1">
          <mxGeometry x="220" y="-70" width="160" height="138" as="geometry">
            <mxRectangle x="230" y="140" width="160" height="26" as="alternateBounds" />
          </mxGeometry>
        </mxCell>
        <mxCell id="bXi78o_w_3qV81OYHnH0-17" value="Cognito Client ID" style="text;align=left;verticalAlign=top;spacingLeft=4;spacingRight=4;overflow=hidden;rotatable=0;points=[[0,0.5],[1,0.5]];portConstraint=eastwest;" vertex="1" parent="bXi78o_w_3qV81OYHnH0-16">
          <mxGeometry y="26" width="160" height="26" as="geometry" />
        </mxCell>
        <mxCell id="bXi78o_w_3qV81OYHnH0-22" value="User" style="swimlane;fontStyle=0;align=center;verticalAlign=top;childLayout=stackLayout;horizontal=1;startSize=26;horizontalStack=0;resizeParent=1;resizeLast=0;collapsible=1;marginBottom=0;rounded=0;shadow=0;strokeWidth=1;" vertex="1" parent="WIyWlLk6GJQsqaUBKTNV-1">
          <mxGeometry x="981" y="245" width="160" height="138" as="geometry">
            <mxRectangle x="230" y="140" width="160" height="26" as="alternateBounds" />
          </mxGeometry>
        </mxCell>
        <mxCell id="bXi78o_w_3qV81OYHnH0-23" value="Cognito ID" style="text;align=left;verticalAlign=top;spacingLeft=4;spacingRight=4;overflow=hidden;rotatable=0;points=[[0,0.5],[1,0.5]];portConstraint=eastwest;" vertex="1" parent="bXi78o_w_3qV81OYHnH0-22">
          <mxGeometry y="26" width="160" height="26" as="geometry" />
        </mxCell>
        <mxCell id="bXi78o_w_3qV81OYHnH0-30" value="BCeID User" style="swimlane;fontStyle=0;align=center;verticalAlign=top;childLayout=stackLayout;horizontal=1;startSize=26;horizontalStack=0;resizeParent=1;resizeLast=0;collapsible=1;marginBottom=0;rounded=0;shadow=0;strokeWidth=1;" vertex="1" parent="WIyWlLk6GJQsqaUBKTNV-1">
          <mxGeometry x="901" y="435" width="160" height="138" as="geometry">
            <mxRectangle x="230" y="140" width="160" height="26" as="alternateBounds" />
          </mxGeometry>
        </mxCell>
        <mxCell id="bXi78o_w_3qV81OYHnH0-31" value="BCeID Username" style="text;align=left;verticalAlign=top;spacingLeft=4;spacingRight=4;overflow=hidden;rotatable=0;points=[[0,0.5],[1,0.5]];portConstraint=eastwest;" vertex="1" parent="bXi78o_w_3qV81OYHnH0-30">
          <mxGeometry y="26" width="160" height="26" as="geometry" />
        </mxCell>
        <mxCell id="bXi78o_w_3qV81OYHnH0-94" value="BCeID GUID" style="text;align=left;verticalAlign=top;spacingLeft=4;spacingRight=4;overflow=hidden;rotatable=0;points=[[0,0.5],[1,0.5]];portConstraint=eastwest;" vertex="1" parent="bXi78o_w_3qV81OYHnH0-30">
          <mxGeometry y="52" width="160" height="26" as="geometry" />
        </mxCell>
        <mxCell id="bXi78o_w_3qV81OYHnH0-32" value="IDIR User" style="swimlane;fontStyle=0;align=center;verticalAlign=top;childLayout=stackLayout;horizontal=1;startSize=26;horizontalStack=0;resizeParent=1;resizeLast=0;collapsible=1;marginBottom=0;rounded=0;shadow=0;strokeWidth=1;" vertex="1" parent="WIyWlLk6GJQsqaUBKTNV-1">
          <mxGeometry x="1081" y="435" width="160" height="138" as="geometry">
            <mxRectangle x="230" y="140" width="160" height="26" as="alternateBounds" />
          </mxGeometry>
        </mxCell>
        <mxCell id="bXi78o_w_3qV81OYHnH0-33" value="IDIR Username" style="text;align=left;verticalAlign=top;spacingLeft=4;spacingRight=4;overflow=hidden;rotatable=0;points=[[0,0.5],[1,0.5]];portConstraint=eastwest;" vertex="1" parent="bXi78o_w_3qV81OYHnH0-32">
          <mxGeometry y="26" width="160" height="26" as="geometry" />
        </mxCell>
        <mxCell id="bXi78o_w_3qV81OYHnH0-36" value="IDIR GUID" style="text;align=left;verticalAlign=top;spacingLeft=4;spacingRight=4;overflow=hidden;rotatable=0;points=[[0,0.5],[1,0.5]];portConstraint=eastwest;" vertex="1" parent="bXi78o_w_3qV81OYHnH0-32">
          <mxGeometry y="52" width="160" height="26" as="geometry" />
        </mxCell>
        <mxCell id="bXi78o_w_3qV81OYHnH0-34" value="Extends" style="endArrow=block;endSize=16;endFill=0;html=1;fontSize=9;" edge="1" parent="WIyWlLk6GJQsqaUBKTNV-1" source="bXi78o_w_3qV81OYHnH0-30" target="bXi78o_w_3qV81OYHnH0-22">
          <mxGeometry width="160" relative="1" as="geometry">
            <mxPoint x="691" y="515" as="sourcePoint" />
            <mxPoint x="851" y="515" as="targetPoint" />
          </mxGeometry>
        </mxCell>
        <mxCell id="bXi78o_w_3qV81OYHnH0-35" value="Extends" style="endArrow=block;endSize=16;endFill=0;html=1;fontSize=9;" edge="1" parent="WIyWlLk6GJQsqaUBKTNV-1" source="bXi78o_w_3qV81OYHnH0-32" target="bXi78o_w_3qV81OYHnH0-22">
          <mxGeometry width="160" relative="1" as="geometry">
            <mxPoint x="1020.0526315789475" y="445" as="sourcePoint" />
            <mxPoint x="1041.9473684210527" y="393" as="targetPoint" />
          </mxGeometry>
        </mxCell>
        <mxCell id="bXi78o_w_3qV81OYHnH0-38" value="Group" style="swimlane;fontStyle=0;align=center;verticalAlign=top;childLayout=stackLayout;horizontal=1;startSize=26;horizontalStack=0;resizeParent=1;resizeLast=0;collapsible=1;marginBottom=0;rounded=0;shadow=0;strokeWidth=1;" vertex="1" parent="WIyWlLk6GJQsqaUBKTNV-1">
          <mxGeometry x="508" y="-70" width="160" height="94" as="geometry">
            <mxRectangle x="340" y="380" width="170" height="26" as="alternateBounds" />
          </mxGeometry>
        </mxCell>
        <mxCell id="bXi78o_w_3qV81OYHnH0-39" value="Name" style="text;align=left;verticalAlign=top;spacingLeft=4;spacingRight=4;overflow=hidden;rotatable=0;points=[[0,0.5],[1,0.5]];portConstraint=eastwest;" vertex="1" parent="bXi78o_w_3qV81OYHnH0-38">
          <mxGeometry y="26" width="160" height="26" as="geometry" />
        </mxCell>
        <mxCell id="bXi78o_w_3qV81OYHnH0-40" value="Purpose" style="text;align=left;verticalAlign=top;spacingLeft=4;spacingRight=4;overflow=hidden;rotatable=0;points=[[0,0.5],[1,0.5]];portConstraint=eastwest;" vertex="1" parent="bXi78o_w_3qV81OYHnH0-38">
          <mxGeometry y="52" width="160" height="26" as="geometry" />
        </mxCell>
        <mxCell id="bXi78o_w_3qV81OYHnH0-41" value="FAM Administrator" style="swimlane;fontStyle=0;align=center;verticalAlign=top;childLayout=stackLayout;horizontal=1;startSize=26;horizontalStack=0;resizeParent=1;resizeLast=0;collapsible=1;marginBottom=0;rounded=0;shadow=0;strokeWidth=1;" vertex="1" parent="WIyWlLk6GJQsqaUBKTNV-1">
          <mxGeometry x="-80" y="120" width="160" height="60" as="geometry">
            <mxRectangle x="230" y="140" width="160" height="26" as="alternateBounds" />
          </mxGeometry>
        </mxCell>
        <mxCell id="bXi78o_w_3qV81OYHnH0-46" value="Application Administrator" style="swimlane;fontStyle=0;align=center;verticalAlign=top;childLayout=stackLayout;horizontal=1;startSize=26;horizontalStack=0;resizeParent=1;resizeLast=0;collapsible=1;marginBottom=0;rounded=0;shadow=0;strokeWidth=1;" vertex="1" parent="WIyWlLk6GJQsqaUBKTNV-1">
          <mxGeometry x="-80" y="230" width="160" height="50" as="geometry">
            <mxRectangle x="230" y="140" width="160" height="26" as="alternateBounds" />
          </mxGeometry>
        </mxCell>
        <mxCell id="bXi78o_w_3qV81OYHnH0-47" value="" style="endArrow=open;shadow=0;strokeWidth=1;rounded=0;endFill=1;edgeStyle=elbowEdgeStyle;elbow=vertical;startArrow=none;exitX=0.5;exitY=1;exitDx=0;exitDy=0;" edge="1" parent="WIyWlLk6GJQsqaUBKTNV-1" source="bXi78o_w_3qV81OYHnH0-41" target="bXi78o_w_3qV81OYHnH0-46">
          <mxGeometry x="0.5" y="41" relative="1" as="geometry">
            <mxPoint x="-60" y="250.00000000000023" as="sourcePoint" />
            <mxPoint x="598" y="-70" as="targetPoint" />
            <mxPoint x="-40" y="32" as="offset" />
          </mxGeometry>
        </mxCell>
        <mxCell id="bXi78o_w_3qV81OYHnH0-49" value="1" style="resizable=0;align=right;verticalAlign=bottom;labelBackgroundColor=none;fontSize=12;" connectable="0" vertex="1" parent="bXi78o_w_3qV81OYHnH0-47">
          <mxGeometry x="1" relative="1" as="geometry">
            <mxPoint x="-7" y="4" as="offset" />
          </mxGeometry>
        </mxCell>
        <mxCell id="bXi78o_w_3qV81OYHnH0-50" value="manages" style="text;html=1;resizable=0;points=[];;align=center;verticalAlign=middle;labelBackgroundColor=none;rounded=0;shadow=0;strokeWidth=1;fontSize=9;" vertex="1" connectable="0" parent="bXi78o_w_3qV81OYHnH0-47">
          <mxGeometry x="0.5" y="49" relative="1" as="geometry">
            <mxPoint x="-19" y="-13" as="offset" />
          </mxGeometry>
        </mxCell>
        <mxCell id="bXi78o_w_3qV81OYHnH0-57" value="1..*" style="edgeLabel;html=1;align=center;verticalAlign=middle;resizable=0;points=[];" vertex="1" connectable="0" parent="bXi78o_w_3qV81OYHnH0-47">
          <mxGeometry x="-0.6854" y="2" relative="1" as="geometry">
            <mxPoint x="18" y="1" as="offset" />
          </mxGeometry>
        </mxCell>
        <mxCell id="bXi78o_w_3qV81OYHnH0-58" value="Authorization Grantor" style="swimlane;fontStyle=0;align=center;verticalAlign=top;childLayout=stackLayout;horizontal=1;startSize=26;horizontalStack=0;resizeParent=1;resizeLast=0;collapsible=1;marginBottom=0;rounded=0;shadow=0;strokeWidth=1;" vertex="1" parent="WIyWlLk6GJQsqaUBKTNV-1">
          <mxGeometry x="360" y="-230.00000000000006" width="160" height="60" as="geometry">
            <mxRectangle x="220" y="344.33" width="160" height="26" as="alternateBounds" />
          </mxGeometry>
        </mxCell>
        <mxCell id="bXi78o_w_3qV81OYHnH0-60" value="" style="endArrow=open;shadow=0;strokeWidth=1;rounded=0;endFill=1;edgeStyle=elbowEdgeStyle;elbow=vertical;startArrow=none;entryX=0;entryY=0.5;entryDx=0;entryDy=0;" edge="1" parent="WIyWlLk6GJQsqaUBKTNV-1" source="bXi78o_w_3qV81OYHnH0-46" target="bXi78o_w_3qV81OYHnH0-58">
          <mxGeometry x="0.5" y="41" relative="1" as="geometry">
            <mxPoint x="189.16999999999996" y="250" as="sourcePoint" />
            <mxPoint x="189.16999999999996" y="308" as="targetPoint" />
            <mxPoint x="-40" y="32" as="offset" />
            <Array as="points">
              <mxPoint x="-110" y="-190" />
              <mxPoint x="110" y="374" />
            </Array>
          </mxGeometry>
        </mxCell>
        <mxCell id="bXi78o_w_3qV81OYHnH0-61" value="0..*" style="resizable=0;align=right;verticalAlign=bottom;labelBackgroundColor=none;fontSize=12;" connectable="0" vertex="1" parent="bXi78o_w_3qV81OYHnH0-60">
          <mxGeometry x="1" relative="1" as="geometry">
            <mxPoint x="-10" y="26" as="offset" />
          </mxGeometry>
        </mxCell>
        <mxCell id="bXi78o_w_3qV81OYHnH0-62" value="manages" style="text;html=1;resizable=0;points=[];;align=center;verticalAlign=middle;labelBackgroundColor=none;rounded=0;shadow=0;strokeWidth=1;fontSize=9;" vertex="1" connectable="0" parent="bXi78o_w_3qV81OYHnH0-60">
          <mxGeometry x="0.5" y="49" relative="1" as="geometry">
            <mxPoint x="-19" y="35" as="offset" />
          </mxGeometry>
        </mxCell>
        <mxCell id="bXi78o_w_3qV81OYHnH0-63" value="1..*" style="edgeLabel;html=1;align=center;verticalAlign=middle;resizable=0;points=[];" vertex="1" connectable="0" parent="bXi78o_w_3qV81OYHnH0-60">
          <mxGeometry x="-0.6854" y="2" relative="1" as="geometry">
            <mxPoint x="18" y="131" as="offset" />
          </mxGeometry>
        </mxCell>
        <mxCell id="bXi78o_w_3qV81OYHnH0-64" value="" style="endArrow=open;shadow=0;strokeWidth=1;rounded=0;endFill=1;edgeStyle=elbowEdgeStyle;elbow=vertical;startArrow=none;" edge="1" parent="WIyWlLk6GJQsqaUBKTNV-1" source="bXi78o_w_3qV81OYHnH0-41" target="zkfFHV4jXpPFQw0GAbJ--0">
          <mxGeometry x="0.5" y="41" relative="1" as="geometry">
            <mxPoint x="9.999999999999773" y="190" as="sourcePoint" />
            <mxPoint x="9.999999999999773" y="240" as="targetPoint" />
            <mxPoint x="-40" y="32" as="offset" />
          </mxGeometry>
        </mxCell>
        <mxCell id="bXi78o_w_3qV81OYHnH0-65" value="1..*" style="resizable=0;align=right;verticalAlign=bottom;labelBackgroundColor=none;fontSize=12;" connectable="0" vertex="1" parent="bXi78o_w_3qV81OYHnH0-64">
          <mxGeometry x="1" relative="1" as="geometry">
            <mxPoint as="offset" />
          </mxGeometry>
        </mxCell>
        <mxCell id="bXi78o_w_3qV81OYHnH0-66" value="creates/deletes/edits" style="text;html=1;resizable=0;points=[];;align=center;verticalAlign=middle;labelBackgroundColor=none;rounded=0;shadow=0;strokeWidth=1;fontSize=9;" vertex="1" connectable="0" parent="bXi78o_w_3qV81OYHnH0-64">
          <mxGeometry x="0.5" y="49" relative="1" as="geometry">
            <mxPoint x="-35" y="39" as="offset" />
          </mxGeometry>
        </mxCell>
        <mxCell id="bXi78o_w_3qV81OYHnH0-67" value="1..*" style="edgeLabel;html=1;align=center;verticalAlign=middle;resizable=0;points=[];" vertex="1" connectable="0" parent="bXi78o_w_3qV81OYHnH0-64">
          <mxGeometry x="-0.6854" y="2" relative="1" as="geometry">
            <mxPoint x="-12" y="-8" as="offset" />
          </mxGeometry>
        </mxCell>
        <mxCell id="bXi78o_w_3qV81OYHnH0-68" value="" style="endArrow=open;shadow=0;strokeWidth=1;rounded=0;endFill=1;edgeStyle=elbowEdgeStyle;elbow=vertical;startArrow=none;" edge="1" parent="WIyWlLk6GJQsqaUBKTNV-1" source="bXi78o_w_3qV81OYHnH0-46" target="zkfFHV4jXpPFQw0GAbJ--0">
          <mxGeometry x="0.5" y="41" relative="1" as="geometry">
            <mxPoint x="89.99999999999977" y="159.66666666666674" as="sourcePoint" />
            <mxPoint x="230" y="159.66666666666674" as="targetPoint" />
            <mxPoint x="-40" y="32" as="offset" />
          </mxGeometry>
        </mxCell>
        <mxCell id="bXi78o_w_3qV81OYHnH0-69" value="1..*" style="resizable=0;align=right;verticalAlign=bottom;labelBackgroundColor=none;fontSize=12;" connectable="0" vertex="1" parent="bXi78o_w_3qV81OYHnH0-68">
          <mxGeometry x="1" relative="1" as="geometry">
            <mxPoint as="offset" />
          </mxGeometry>
        </mxCell>
        <mxCell id="bXi78o_w_3qV81OYHnH0-70" value="manages grantors for" style="text;html=1;resizable=0;points=[];;align=center;verticalAlign=middle;labelBackgroundColor=none;rounded=0;shadow=0;strokeWidth=1;fontSize=9;" vertex="1" connectable="0" parent="bXi78o_w_3qV81OYHnH0-68">
          <mxGeometry x="0.5" y="49" relative="1" as="geometry">
            <mxPoint x="-35" y="35" as="offset" />
          </mxGeometry>
        </mxCell>
        <mxCell id="bXi78o_w_3qV81OYHnH0-71" value="1..*" style="edgeLabel;html=1;align=center;verticalAlign=middle;resizable=0;points=[];" vertex="1" connectable="0" parent="bXi78o_w_3qV81OYHnH0-68">
          <mxGeometry x="-0.6854" y="2" relative="1" as="geometry">
            <mxPoint x="-12" y="-8" as="offset" />
          </mxGeometry>
        </mxCell>
        <mxCell id="bXi78o_w_3qV81OYHnH0-74" value="Forest Client Role" style="swimlane;fontStyle=0;align=center;verticalAlign=top;childLayout=stackLayout;horizontal=1;startSize=26;horizontalStack=0;resizeParent=1;resizeLast=0;collapsible=1;marginBottom=0;rounded=0;shadow=0;strokeWidth=1;" vertex="1" parent="WIyWlLk6GJQsqaUBKTNV-1">
          <mxGeometry x="629" y="370" width="160" height="110" as="geometry">
            <mxRectangle x="550" y="140" width="160" height="26" as="alternateBounds" />
          </mxGeometry>
        </mxCell>
        <mxCell id="bXi78o_w_3qV81OYHnH0-77" value="&lt;font style=&quot;font-size: 9px&quot;&gt;Extends&lt;/font&gt;" style="endArrow=block;endSize=16;endFill=0;html=1;fontStyle=1;exitX=0.75;exitY=0;exitDx=0;exitDy=0;" edge="1" parent="WIyWlLk6GJQsqaUBKTNV-1" source="bXi78o_w_3qV81OYHnH0-74">
          <mxGeometry width="160" relative="1" as="geometry">
            <mxPoint x="760" y="360" as="sourcePoint" />
            <mxPoint x="751" y="300" as="targetPoint" />
            <Array as="points" />
          </mxGeometry>
        </mxCell>
        <mxCell id="bXi78o_w_3qV81OYHnH0-78" value="Forest Client" style="swimlane;fontStyle=0;align=center;verticalAlign=top;childLayout=stackLayout;horizontal=1;startSize=26;horizontalStack=0;resizeParent=1;resizeLast=0;collapsible=1;marginBottom=0;rounded=0;shadow=0;strokeWidth=1;" vertex="1" parent="WIyWlLk6GJQsqaUBKTNV-1">
          <mxGeometry x="629" y="565" width="160" height="90" as="geometry">
            <mxRectangle x="550" y="140" width="160" height="26" as="alternateBounds" />
          </mxGeometry>
        </mxCell>
        <mxCell id="bXi78o_w_3qV81OYHnH0-79" value="ID" style="text;align=left;verticalAlign=top;spacingLeft=4;spacingRight=4;overflow=hidden;rotatable=0;points=[[0,0.5],[1,0.5]];portConstraint=eastwest;" vertex="1" parent="bXi78o_w_3qV81OYHnH0-78">
          <mxGeometry y="26" width="160" height="26" as="geometry" />
        </mxCell>
        <mxCell id="bXi78o_w_3qV81OYHnH0-80" value="Name" style="text;align=left;verticalAlign=top;spacingLeft=4;spacingRight=4;overflow=hidden;rotatable=0;points=[[0,0.5],[1,0.5]];portConstraint=eastwest;" vertex="1" parent="bXi78o_w_3qV81OYHnH0-78">
          <mxGeometry y="52" width="160" height="26" as="geometry" />
        </mxCell>
        <mxCell id="bXi78o_w_3qV81OYHnH0-81" value="" style="endArrow=open;shadow=0;strokeWidth=1;rounded=0;endFill=1;edgeStyle=elbowEdgeStyle;elbow=vertical;" edge="1" parent="WIyWlLk6GJQsqaUBKTNV-1" source="bXi78o_w_3qV81OYHnH0-74" target="bXi78o_w_3qV81OYHnH0-78">
          <mxGeometry x="0.5" y="41" relative="1" as="geometry">
            <mxPoint x="921" y="238" as="sourcePoint" />
            <mxPoint x="921" y="290" as="targetPoint" />
            <mxPoint x="-40" y="32" as="offset" />
          </mxGeometry>
        </mxCell>
        <mxCell id="bXi78o_w_3qV81OYHnH0-82" value="0..*" style="resizable=0;align=left;verticalAlign=bottom;labelBackgroundColor=none;fontSize=12;" connectable="0" vertex="1" parent="bXi78o_w_3qV81OYHnH0-81">
          <mxGeometry x="-1" relative="1" as="geometry">
            <mxPoint x="2" y="20" as="offset" />
          </mxGeometry>
        </mxCell>
        <mxCell id="bXi78o_w_3qV81OYHnH0-83" value="1..1" style="resizable=0;align=right;verticalAlign=bottom;labelBackgroundColor=none;fontSize=12;" connectable="0" vertex="1" parent="bXi78o_w_3qV81OYHnH0-81">
          <mxGeometry x="1" relative="1" as="geometry">
            <mxPoint x="-10" as="offset" />
          </mxGeometry>
        </mxCell>
        <mxCell id="bXi78o_w_3qV81OYHnH0-84" value="limited by" style="text;html=1;resizable=0;points=[];;align=center;verticalAlign=middle;labelBackgroundColor=none;rounded=0;shadow=0;strokeWidth=1;fontSize=12;" vertex="1" connectable="0" parent="bXi78o_w_3qV81OYHnH0-81">
          <mxGeometry x="0.5" y="49" relative="1" as="geometry">
            <mxPoint x="-17" y="-24" as="offset" />
          </mxGeometry>
        </mxCell>
        <mxCell id="bXi78o_w_3qV81OYHnH0-85" value="" style="endArrow=open;shadow=0;strokeWidth=1;rounded=0;endFill=1;edgeStyle=elbowEdgeStyle;elbow=vertical;exitX=1;exitY=0.5;exitDx=0;exitDy=0;" edge="1" parent="WIyWlLk6GJQsqaUBKTNV-1" source="bXi78o_w_3qV81OYHnH0-74" target="zkfFHV4jXpPFQw0GAbJ--17">
          <mxGeometry x="0.5" y="41" relative="1" as="geometry">
            <mxPoint x="839.33" y="270" as="sourcePoint" />
            <mxPoint x="931.33" y="180" as="targetPoint" />
            <mxPoint x="-40" y="32" as="offset" />
            <Array as="points">
              <mxPoint x="850" y="240" />
              <mxPoint x="850" y="280" />
              <mxPoint x="861" y="260" />
              <mxPoint x="861" y="250" />
              <mxPoint x="991.3299999999999" y="250" />
              <mxPoint x="971.3299999999999" y="230" />
              <mxPoint x="961.33" y="250" />
            </Array>
          </mxGeometry>
        </mxCell>
        <mxCell id="bXi78o_w_3qV81OYHnH0-86" value="0..*" style="resizable=0;align=left;verticalAlign=bottom;labelBackgroundColor=none;fontSize=12;" connectable="0" vertex="1" parent="bXi78o_w_3qV81OYHnH0-85">
          <mxGeometry x="-1" relative="1" as="geometry">
            <mxPoint x="2" y="20" as="offset" />
          </mxGeometry>
        </mxCell>
        <mxCell id="bXi78o_w_3qV81OYHnH0-87" value="1..1" style="resizable=0;align=right;verticalAlign=bottom;labelBackgroundColor=none;fontSize=12;" connectable="0" vertex="1" parent="bXi78o_w_3qV81OYHnH0-85">
          <mxGeometry x="1" relative="1" as="geometry">
            <mxPoint x="32" y="-5" as="offset" />
          </mxGeometry>
        </mxCell>
        <mxCell id="bXi78o_w_3qV81OYHnH0-88" value="grouped by" style="text;html=1;resizable=0;points=[];;align=center;verticalAlign=middle;labelBackgroundColor=none;rounded=0;shadow=0;strokeWidth=1;fontSize=12;" vertex="1" connectable="0" parent="bXi78o_w_3qV81OYHnH0-85">
          <mxGeometry x="0.5" y="49" relative="1" as="geometry">
            <mxPoint x="49" y="74" as="offset" />
          </mxGeometry>
        </mxCell>
        <mxCell id="bXi78o_w_3qV81OYHnH0-90" value="" style="endArrow=open;shadow=0;strokeWidth=1;rounded=0;endFill=1;edgeStyle=elbowEdgeStyle;elbow=vertical;entryX=1;entryY=0.5;entryDx=0;entryDy=0;" edge="1" parent="WIyWlLk6GJQsqaUBKTNV-1" source="bXi78o_w_3qV81OYHnH0-22" target="zkfFHV4jXpPFQw0GAbJ--18">
          <mxGeometry x="0.5" y="41" relative="1" as="geometry">
            <mxPoint x="799" y="365" as="sourcePoint" />
            <mxPoint x="799" y="195" as="targetPoint" />
            <mxPoint x="-40" y="32" as="offset" />
            <Array as="points">
              <mxPoint x="1010" y="159" />
              <mxPoint x="980" y="150" />
              <mxPoint x="910" y="140" />
              <mxPoint x="1010" y="170" />
              <mxPoint x="941" y="159" />
              <mxPoint x="1001.3299999999999" y="260" />
              <mxPoint x="981.3299999999999" y="240" />
              <mxPoint x="971.3299999999999" y="260" />
            </Array>
          </mxGeometry>
        </mxCell>
        <mxCell id="bXi78o_w_3qV81OYHnH0-91" value="0..*" style="resizable=0;align=left;verticalAlign=bottom;labelBackgroundColor=none;fontSize=12;" connectable="0" vertex="1" parent="bXi78o_w_3qV81OYHnH0-90">
          <mxGeometry x="-1" relative="1" as="geometry">
            <mxPoint x="2" y="-15" as="offset" />
          </mxGeometry>
        </mxCell>
        <mxCell id="bXi78o_w_3qV81OYHnH0-92" value="0..*" style="resizable=0;align=right;verticalAlign=bottom;labelBackgroundColor=none;fontSize=12;" connectable="0" vertex="1" parent="bXi78o_w_3qV81OYHnH0-90">
          <mxGeometry x="1" relative="1" as="geometry">
            <mxPoint x="32" y="-5" as="offset" />
          </mxGeometry>
        </mxCell>
        <mxCell id="bXi78o_w_3qV81OYHnH0-93" value="assigned to" style="text;html=1;resizable=0;points=[];;align=center;verticalAlign=middle;labelBackgroundColor=none;rounded=0;shadow=0;strokeWidth=1;fontSize=9;" vertex="1" connectable="0" parent="bXi78o_w_3qV81OYHnH0-90">
          <mxGeometry x="0.5" y="49" relative="1" as="geometry">
            <mxPoint x="55" y="-68" as="offset" />
          </mxGeometry>
        </mxCell>
        <mxCell id="bXi78o_w_3qV81OYHnH0-95" value="" style="endArrow=open;shadow=0;strokeWidth=1;rounded=0;endFill=1;edgeStyle=elbowEdgeStyle;elbow=vertical;" edge="1" parent="WIyWlLk6GJQsqaUBKTNV-1" source="bXi78o_w_3qV81OYHnH0-22" target="bXi78o_w_3qV81OYHnH0-38">
          <mxGeometry x="0.5" y="41" relative="1" as="geometry">
            <mxPoint x="1011" y="390" as="sourcePoint" />
            <mxPoint x="729" y="159" as="targetPoint" />
            <mxPoint x="-40" y="32" as="offset" />
            <Array as="points">
              <mxPoint x="970" y="-30" />
              <mxPoint x="1050" y="-23" />
              <mxPoint x="881" y="159" />
              <mxPoint x="941.33" y="260" />
              <mxPoint x="921.33" y="240" />
              <mxPoint x="911.33" y="260" />
            </Array>
          </mxGeometry>
        </mxCell>
        <mxCell id="bXi78o_w_3qV81OYHnH0-96" value="0..*" style="resizable=0;align=left;verticalAlign=bottom;labelBackgroundColor=none;fontSize=12;" connectable="0" vertex="1" parent="bXi78o_w_3qV81OYHnH0-95">
          <mxGeometry x="-1" relative="1" as="geometry">
            <mxPoint x="10" y="-15" as="offset" />
          </mxGeometry>
        </mxCell>
        <mxCell id="bXi78o_w_3qV81OYHnH0-97" value="0..*" style="resizable=0;align=right;verticalAlign=bottom;labelBackgroundColor=none;fontSize=12;" connectable="0" vertex="1" parent="bXi78o_w_3qV81OYHnH0-95">
          <mxGeometry x="1" relative="1" as="geometry">
            <mxPoint x="32" y="-5" as="offset" />
          </mxGeometry>
        </mxCell>
        <mxCell id="bXi78o_w_3qV81OYHnH0-98" value="assigned to" style="text;html=1;resizable=0;points=[];;align=center;verticalAlign=middle;labelBackgroundColor=none;rounded=0;shadow=0;strokeWidth=1;fontSize=9;" vertex="1" connectable="0" parent="bXi78o_w_3qV81OYHnH0-95">
          <mxGeometry x="0.5" y="49" relative="1" as="geometry">
            <mxPoint x="73" y="-59" as="offset" />
          </mxGeometry>
        </mxCell>
        <mxCell id="bXi78o_w_3qV81OYHnH0-99" value="" style="endArrow=open;shadow=0;strokeWidth=1;rounded=0;endFill=1;edgeStyle=elbowEdgeStyle;elbow=vertical;startArrow=none;" edge="1" parent="WIyWlLk6GJQsqaUBKTNV-1" source="bXi78o_w_3qV81OYHnH0-46" target="bXi78o_w_3qV81OYHnH0-38">
          <mxGeometry x="0.5" y="41" relative="1" as="geometry">
            <mxPoint x="79.99999999999977" y="280" as="sourcePoint" />
            <mxPoint x="540" y="300" as="targetPoint" />
            <mxPoint x="-40" y="32" as="offset" />
            <Array as="points">
              <mxPoint x="550" y="300" />
              <mxPoint x="40" y="300" />
              <mxPoint x="560" y="300" />
              <mxPoint x="580" y="300" />
              <mxPoint x="40" y="300" />
              <mxPoint x="550" y="300" />
              <mxPoint x="540" y="310" />
              <mxPoint x="260" y="340" />
              <mxPoint x="320" y="280" />
              <mxPoint x="550" y="270" />
              <mxPoint x="470" y="270" />
            </Array>
          </mxGeometry>
        </mxCell>
        <mxCell id="bXi78o_w_3qV81OYHnH0-100" value="0..*" style="resizable=0;align=right;verticalAlign=bottom;labelBackgroundColor=none;fontSize=12;" connectable="0" vertex="1" parent="bXi78o_w_3qV81OYHnH0-99">
          <mxGeometry x="1" relative="1" as="geometry">
            <mxPoint x="-8" y="16" as="offset" />
          </mxGeometry>
        </mxCell>
        <mxCell id="bXi78o_w_3qV81OYHnH0-101" value="creates/deletes/edits" style="text;html=1;resizable=0;points=[];;align=center;verticalAlign=middle;labelBackgroundColor=none;rounded=0;shadow=0;strokeWidth=1;fontSize=9;" vertex="1" connectable="0" parent="bXi78o_w_3qV81OYHnH0-99">
          <mxGeometry x="0.5" y="49" relative="1" as="geometry">
            <mxPoint x="-219" y="54" as="offset" />
          </mxGeometry>
        </mxCell>
        <mxCell id="bXi78o_w_3qV81OYHnH0-102" value="1..*" style="edgeLabel;html=1;align=center;verticalAlign=middle;resizable=0;points=[];" vertex="1" connectable="0" parent="bXi78o_w_3qV81OYHnH0-99">
          <mxGeometry x="-0.6854" y="2" relative="1" as="geometry">
            <mxPoint x="-93" y="-8" as="offset" />
          </mxGeometry>
        </mxCell>
        <mxCell id="bXi78o_w_3qV81OYHnH0-103" value="" style="endArrow=open;shadow=0;strokeWidth=1;rounded=0;endFill=1;edgeStyle=elbowEdgeStyle;elbow=vertical;" edge="1" parent="WIyWlLk6GJQsqaUBKTNV-1" source="bXi78o_w_3qV81OYHnH0-38" target="zkfFHV4jXpPFQw0GAbJ--17">
          <mxGeometry x="0.5" y="41" relative="1" as="geometry">
            <mxPoint x="518" y="181.95238095238096" as="sourcePoint" />
            <mxPoint x="390" y="181.95238095238096" as="targetPoint" />
            <mxPoint x="-40" y="32" as="offset" />
            <Array as="points">
              <mxPoint x="650" y="60" />
            </Array>
          </mxGeometry>
        </mxCell>
        <mxCell id="bXi78o_w_3qV81OYHnH0-104" value="1..*" style="resizable=0;align=left;verticalAlign=bottom;labelBackgroundColor=none;fontSize=12;" connectable="0" vertex="1" parent="bXi78o_w_3qV81OYHnH0-103">
          <mxGeometry x="-1" relative="1" as="geometry">
            <mxPoint x="-28" y="16" as="offset" />
          </mxGeometry>
        </mxCell>
        <mxCell id="bXi78o_w_3qV81OYHnH0-105" value="1..*" style="resizable=0;align=right;verticalAlign=bottom;labelBackgroundColor=none;fontSize=12;" connectable="0" vertex="1" parent="bXi78o_w_3qV81OYHnH0-103">
          <mxGeometry x="1" relative="1" as="geometry">
            <mxPoint x="30" y="1" as="offset" />
          </mxGeometry>
        </mxCell>
        <mxCell id="bXi78o_w_3qV81OYHnH0-106" value="groups" style="text;html=1;resizable=0;points=[];;align=center;verticalAlign=middle;labelBackgroundColor=none;rounded=0;shadow=0;strokeWidth=1;fontSize=9;" vertex="1" connectable="0" parent="bXi78o_w_3qV81OYHnH0-103">
          <mxGeometry x="0.5" y="49" relative="1" as="geometry">
            <mxPoint x="-27" y="-26" as="offset" />
          </mxGeometry>
        </mxCell>
        <mxCell id="bXi78o_w_3qV81OYHnH0-109" value="" style="endArrow=open;shadow=0;strokeWidth=1;rounded=0;endFill=1;edgeStyle=elbowEdgeStyle;elbow=vertical;exitX=0.25;exitY=0;exitDx=0;exitDy=0;entryX=0.75;entryY=0;entryDx=0;entryDy=0;" edge="1" parent="WIyWlLk6GJQsqaUBKTNV-1" source="bXi78o_w_3qV81OYHnH0-38" target="bXi78o_w_3qV81OYHnH0-38">
          <mxGeometry x="0.5" y="41" relative="1" as="geometry">
            <mxPoint x="598" y="34" as="sourcePoint" />
            <mxPoint x="598" y="130" as="targetPoint" />
            <mxPoint x="-40" y="32" as="offset" />
            <Array as="points">
              <mxPoint x="588" y="-110" />
              <mxPoint x="548" y="-130" />
            </Array>
          </mxGeometry>
        </mxCell>
        <mxCell id="bXi78o_w_3qV81OYHnH0-110" value="1..*" style="resizable=0;align=left;verticalAlign=bottom;labelBackgroundColor=none;fontSize=12;" connectable="0" vertex="1" parent="bXi78o_w_3qV81OYHnH0-109">
          <mxGeometry x="-1" relative="1" as="geometry">
            <mxPoint x="-28" as="offset" />
          </mxGeometry>
        </mxCell>
        <mxCell id="bXi78o_w_3qV81OYHnH0-111" value="1..*" style="resizable=0;align=right;verticalAlign=bottom;labelBackgroundColor=none;fontSize=12;" connectable="0" vertex="1" parent="bXi78o_w_3qV81OYHnH0-109">
          <mxGeometry x="1" relative="1" as="geometry">
            <mxPoint x="30" y="1" as="offset" />
          </mxGeometry>
        </mxCell>
        <mxCell id="bXi78o_w_3qV81OYHnH0-112" value="groups" style="text;html=1;resizable=0;points=[];;align=center;verticalAlign=middle;labelBackgroundColor=none;rounded=0;shadow=0;strokeWidth=1;fontSize=9;" vertex="1" connectable="0" parent="bXi78o_w_3qV81OYHnH0-109">
          <mxGeometry x="0.5" y="49" relative="1" as="geometry">
            <mxPoint x="-87" y="-10" as="offset" />
          </mxGeometry>
        </mxCell>
        <mxCell id="bXi78o_w_3qV81OYHnH0-113" value="" style="endArrow=open;shadow=0;strokeWidth=1;rounded=0;endFill=1;edgeStyle=elbowEdgeStyle;elbow=vertical;" edge="1" parent="WIyWlLk6GJQsqaUBKTNV-1" source="bXi78o_w_3qV81OYHnH0-38">
          <mxGeometry x="0.5" y="41" relative="1" as="geometry">
            <mxPoint x="518" y="50.002380952380975" as="sourcePoint" />
            <mxPoint x="360" y="120" as="targetPoint" />
            <mxPoint x="-40" y="32" as="offset" />
            <Array as="points">
              <mxPoint x="520" y="90" />
              <mxPoint x="530" y="90" />
              <mxPoint x="450" y="90" />
              <mxPoint x="400" y="160" />
              <mxPoint x="540" y="90" />
              <mxPoint x="460" y="90" />
              <mxPoint x="380" y="90" />
              <mxPoint x="540" y="60" />
            </Array>
          </mxGeometry>
        </mxCell>
        <mxCell id="bXi78o_w_3qV81OYHnH0-114" value="1..*" style="resizable=0;align=left;verticalAlign=bottom;labelBackgroundColor=none;fontSize=12;" connectable="0" vertex="1" parent="bXi78o_w_3qV81OYHnH0-113">
          <mxGeometry x="-1" relative="1" as="geometry">
            <mxPoint x="-28" y="26" as="offset" />
          </mxGeometry>
        </mxCell>
        <mxCell id="bXi78o_w_3qV81OYHnH0-115" value="0..*" style="resizable=0;align=right;verticalAlign=bottom;labelBackgroundColor=none;fontSize=12;" connectable="0" vertex="1" parent="bXi78o_w_3qV81OYHnH0-113">
          <mxGeometry x="1" relative="1" as="geometry">
            <mxPoint x="30" y="1" as="offset" />
          </mxGeometry>
        </mxCell>
        <mxCell id="bXi78o_w_3qV81OYHnH0-116" value="defines permissions for" style="text;html=1;resizable=0;points=[];;align=center;verticalAlign=middle;labelBackgroundColor=none;rounded=0;shadow=0;strokeWidth=1;fontSize=9;" vertex="1" connectable="0" parent="bXi78o_w_3qV81OYHnH0-113">
          <mxGeometry x="0.5" y="49" relative="1" as="geometry">
            <mxPoint x="55" y="-38" as="offset" />
          </mxGeometry>
        </mxCell>
        <mxCell id="bXi78o_w_3qV81OYHnH0-117" value="" style="endArrow=open;shadow=0;strokeWidth=1;rounded=0;endFill=1;edgeStyle=elbowEdgeStyle;elbow=vertical;startArrow=none;" edge="1" parent="WIyWlLk6GJQsqaUBKTNV-1" source="bXi78o_w_3qV81OYHnH0-58" target="bXi78o_w_3qV81OYHnH0-22">
          <mxGeometry x="0.5" y="41" relative="1" as="geometry">
            <mxPoint x="970" y="-120" as="sourcePoint" />
            <mxPoint x="370" y="-190" as="targetPoint" />
            <mxPoint x="-40" y="32" as="offset" />
            <Array as="points">
              <mxPoint x="1120" y="-200" />
              <mxPoint x="120" y="384" />
            </Array>
          </mxGeometry>
        </mxCell>
        <mxCell id="bXi78o_w_3qV81OYHnH0-118" value="0..*" style="resizable=0;align=right;verticalAlign=bottom;labelBackgroundColor=none;fontSize=12;" connectable="0" vertex="1" parent="bXi78o_w_3qV81OYHnH0-117">
          <mxGeometry x="1" relative="1" as="geometry">
            <mxPoint x="30" y="-15" as="offset" />
          </mxGeometry>
        </mxCell>
        <mxCell id="bXi78o_w_3qV81OYHnH0-119" value="manages role and group assignments for" style="text;html=1;resizable=0;points=[];;align=center;verticalAlign=middle;labelBackgroundColor=none;rounded=0;shadow=0;strokeWidth=1;fontSize=9;" vertex="1" connectable="0" parent="bXi78o_w_3qV81OYHnH0-117">
          <mxGeometry x="0.5" y="49" relative="1" as="geometry">
            <mxPoint x="-369" y="-204" as="offset" />
          </mxGeometry>
        </mxCell>
        <mxCell id="bXi78o_w_3qV81OYHnH0-120" value="0..*" style="edgeLabel;html=1;align=center;verticalAlign=middle;resizable=0;points=[];" vertex="1" connectable="0" parent="bXi78o_w_3qV81OYHnH0-117">
          <mxGeometry x="-0.6854" y="2" relative="1" as="geometry">
            <mxPoint x="-165" y="12" as="offset" />
          </mxGeometry>
        </mxCell>
        <mxCell id="bXi78o_w_3qV81OYHnH0-121" value="" style="endArrow=open;shadow=0;strokeWidth=1;rounded=0;endFill=1;edgeStyle=elbowEdgeStyle;elbow=vertical;startArrow=none;" edge="1" parent="WIyWlLk6GJQsqaUBKTNV-1" source="bXi78o_w_3qV81OYHnH0-46" target="zkfFHV4jXpPFQw0GAbJ--17">
          <mxGeometry x="0.5" y="41" relative="1" as="geometry">
            <mxPoint x="10" y="290" as="sourcePoint" />
            <mxPoint x="560" y="34" as="targetPoint" />
            <mxPoint x="-40" y="32" as="offset" />
            <Array as="points">
              <mxPoint x="-40" y="340" />
              <mxPoint x="670" y="350" />
              <mxPoint x="-50" y="350" />
              <mxPoint x="650" y="350" />
              <mxPoint x="-30" y="350" />
              <mxPoint x="660" y="350" />
              <mxPoint x="320" y="340" />
              <mxPoint x="-40" y="340" />
              <mxPoint x="330" y="340" />
              <mxPoint x="550" y="320" />
              <mxPoint x="270" y="350" />
              <mxPoint x="330" y="290" />
              <mxPoint x="560" y="280" />
              <mxPoint x="480" y="280" />
            </Array>
          </mxGeometry>
        </mxCell>
        <mxCell id="bXi78o_w_3qV81OYHnH0-122" value="0..*" style="resizable=0;align=right;verticalAlign=bottom;labelBackgroundColor=none;fontSize=12;" connectable="0" vertex="1" parent="bXi78o_w_3qV81OYHnH0-121">
          <mxGeometry x="1" relative="1" as="geometry">
            <mxPoint y="16" as="offset" />
          </mxGeometry>
        </mxCell>
        <mxCell id="bXi78o_w_3qV81OYHnH0-123" value="creates/deletes/edits" style="text;html=1;resizable=0;points=[];;align=center;verticalAlign=middle;labelBackgroundColor=none;rounded=0;shadow=0;strokeWidth=1;fontSize=9;" vertex="1" connectable="0" parent="bXi78o_w_3qV81OYHnH0-121">
          <mxGeometry x="0.5" y="49" relative="1" as="geometry">
            <mxPoint x="-219" y="39" as="offset" />
          </mxGeometry>
        </mxCell>
        <mxCell id="bXi78o_w_3qV81OYHnH0-124" value="1..*" style="edgeLabel;html=1;align=center;verticalAlign=middle;resizable=0;points=[];" vertex="1" connectable="0" parent="bXi78o_w_3qV81OYHnH0-121">
          <mxGeometry x="-0.6854" y="2" relative="1" as="geometry">
            <mxPoint x="-61" y="-48" as="offset" />
          </mxGeometry>
        </mxCell>
        <mxCell id="bXi78o_w_3qV81OYHnH0-126" value="" style="endArrow=open;shadow=0;strokeWidth=1;rounded=0;endFill=1;edgeStyle=elbowEdgeStyle;elbow=vertical;startArrow=none;" edge="1" parent="WIyWlLk6GJQsqaUBKTNV-1" source="bXi78o_w_3qV81OYHnH0-58" target="zkfFHV4jXpPFQw0GAbJ--17">
          <mxGeometry x="0.5" y="41" relative="1" as="geometry">
            <mxPoint x="530" y="-190" as="sourcePoint" />
            <mxPoint x="1130" y="255" as="targetPoint" />
            <mxPoint x="-40" y="32" as="offset" />
            <Array as="points">
              <mxPoint x="440" y="160" />
              <mxPoint x="1130" y="-190" />
              <mxPoint x="130" y="394" />
            </Array>
          </mxGeometry>
        </mxCell>
        <mxCell id="bXi78o_w_3qV81OYHnH0-127" value="0..*" style="resizable=0;align=right;verticalAlign=bottom;labelBackgroundColor=none;fontSize=12;" connectable="0" vertex="1" parent="bXi78o_w_3qV81OYHnH0-126">
          <mxGeometry x="1" relative="1" as="geometry">
            <mxPoint x="-9" as="offset" />
          </mxGeometry>
        </mxCell>
        <mxCell id="bXi78o_w_3qV81OYHnH0-128" value="limited by" style="text;html=1;resizable=0;points=[];;align=center;verticalAlign=middle;labelBackgroundColor=none;rounded=0;shadow=0;strokeWidth=1;fontSize=9;" vertex="1" connectable="0" parent="bXi78o_w_3qV81OYHnH0-126">
          <mxGeometry x="0.5" y="49" relative="1" as="geometry">
            <mxPoint x="-92" y="-221" as="offset" />
          </mxGeometry>
        </mxCell>
        <mxCell id="bXi78o_w_3qV81OYHnH0-129" value="0..*" style="edgeLabel;html=1;align=center;verticalAlign=middle;resizable=0;points=[];" vertex="1" connectable="0" parent="bXi78o_w_3qV81OYHnH0-126">
          <mxGeometry x="-0.6854" y="2" relative="1" as="geometry">
            <mxPoint x="-22" y="-71" as="offset" />
          </mxGeometry>
        </mxCell>
        <mxCell id="bXi78o_w_3qV81OYHnH0-130" value="" style="endArrow=open;shadow=0;strokeWidth=1;rounded=0;endFill=1;edgeStyle=elbowEdgeStyle;elbow=vertical;startArrow=none;" edge="1" parent="WIyWlLk6GJQsqaUBKTNV-1" source="bXi78o_w_3qV81OYHnH0-58" target="bXi78o_w_3qV81OYHnH0-38">
          <mxGeometry x="0.5" y="41" relative="1" as="geometry">
            <mxPoint x="420" y="-160" as="sourcePoint" />
            <mxPoint x="639" y="170" as="targetPoint" />
            <mxPoint x="-40" y="32" as="offset" />
            <Array as="points">
              <mxPoint x="480" y="-23" />
              <mxPoint x="480" y="140" />
              <mxPoint x="1140" y="-180" />
              <mxPoint x="140" y="404" />
            </Array>
          </mxGeometry>
        </mxCell>
        <mxCell id="bXi78o_w_3qV81OYHnH0-131" value="0..*" style="resizable=0;align=right;verticalAlign=bottom;labelBackgroundColor=none;fontSize=12;" connectable="0" vertex="1" parent="bXi78o_w_3qV81OYHnH0-130">
          <mxGeometry x="1" relative="1" as="geometry">
            <mxPoint x="-9" as="offset" />
          </mxGeometry>
        </mxCell>
        <mxCell id="bXi78o_w_3qV81OYHnH0-132" value="can assign" style="text;html=1;resizable=0;points=[];;align=center;verticalAlign=middle;labelBackgroundColor=none;rounded=0;shadow=0;strokeWidth=1;fontSize=9;" vertex="1" connectable="0" parent="bXi78o_w_3qV81OYHnH0-130">
          <mxGeometry x="0.5" y="49" relative="1" as="geometry">
            <mxPoint x="-39" y="-86" as="offset" />
          </mxGeometry>
        </mxCell>
        <mxCell id="bXi78o_w_3qV81OYHnH0-133" value="0..*" style="edgeLabel;html=1;align=center;verticalAlign=middle;resizable=0;points=[];" vertex="1" connectable="0" parent="bXi78o_w_3qV81OYHnH0-130">
          <mxGeometry x="-0.6854" y="2" relative="1" as="geometry">
            <mxPoint x="-22" y="-21" as="offset" />
          </mxGeometry>
        </mxCell>
        <mxCell id="bXi78o_w_3qV81OYHnH0-134" value="" style="endArrow=open;shadow=0;strokeWidth=1;rounded=0;endFill=1;edgeStyle=elbowEdgeStyle;elbow=vertical;startArrow=none;exitX=0.25;exitY=1;exitDx=0;exitDy=0;" edge="1" parent="WIyWlLk6GJQsqaUBKTNV-1" source="bXi78o_w_3qV81OYHnH0-58" target="bXi78o_w_3qV81OYHnH0-78">
          <mxGeometry x="0.5" y="41" relative="1" as="geometry">
            <mxPoint x="450" y="-160" as="sourcePoint" />
            <mxPoint x="639" y="170" as="targetPoint" />
            <mxPoint x="-40" y="32" as="offset" />
            <Array as="points">
              <mxPoint x="520" y="610" />
              <mxPoint x="450" y="170" />
              <mxPoint x="1140" y="-180" />
              <mxPoint x="140" y="404" />
            </Array>
          </mxGeometry>
        </mxCell>
        <mxCell id="bXi78o_w_3qV81OYHnH0-135" value="0..*" style="resizable=0;align=right;verticalAlign=bottom;labelBackgroundColor=none;fontSize=12;" connectable="0" vertex="1" parent="bXi78o_w_3qV81OYHnH0-134">
          <mxGeometry x="1" relative="1" as="geometry">
            <mxPoint x="-9" as="offset" />
          </mxGeometry>
        </mxCell>
        <mxCell id="bXi78o_w_3qV81OYHnH0-136" value="can assign" style="text;html=1;resizable=0;points=[];;align=center;verticalAlign=middle;labelBackgroundColor=none;rounded=0;shadow=0;strokeWidth=1;fontSize=9;" vertex="1" connectable="0" parent="bXi78o_w_3qV81OYHnH0-134">
          <mxGeometry x="0.5" y="49" relative="1" as="geometry">
            <mxPoint x="-92" y="-221" as="offset" />
          </mxGeometry>
        </mxCell>
        <mxCell id="bXi78o_w_3qV81OYHnH0-137" value="0..*" style="edgeLabel;html=1;align=center;verticalAlign=middle;resizable=0;points=[];" vertex="1" connectable="0" parent="bXi78o_w_3qV81OYHnH0-134">
          <mxGeometry x="-0.6854" y="2" relative="1" as="geometry">
            <mxPoint x="-22" y="-149" as="offset" />
          </mxGeometry>
        </mxCell>
        <mxCell id="bXi78o_w_3qV81OYHnH0-138" value="Forest Client Group" style="swimlane;fontStyle=0;align=center;verticalAlign=top;childLayout=stackLayout;horizontal=1;startSize=26;horizontalStack=0;resizeParent=1;resizeLast=0;collapsible=1;marginBottom=0;rounded=0;shadow=0;strokeWidth=1;" vertex="1" parent="WIyWlLk6GJQsqaUBKTNV-1">
          <mxGeometry x="452" y="370" width="160" height="110" as="geometry">
            <mxRectangle x="550" y="140" width="160" height="26" as="alternateBounds" />
          </mxGeometry>
        </mxCell>
        <mxCell id="bXi78o_w_3qV81OYHnH0-139" value="" style="endArrow=open;shadow=0;strokeWidth=1;rounded=0;endFill=1;edgeStyle=elbowEdgeStyle;elbow=vertical;" edge="1" parent="WIyWlLk6GJQsqaUBKTNV-1" source="bXi78o_w_3qV81OYHnH0-138" target="bXi78o_w_3qV81OYHnH0-78">
          <mxGeometry x="0.5" y="41" relative="1" as="geometry">
            <mxPoint x="719" y="490" as="sourcePoint" />
            <mxPoint x="719" y="575" as="targetPoint" />
            <mxPoint x="-40" y="32" as="offset" />
            <Array as="points">
              <mxPoint x="660" y="523" />
            </Array>
          </mxGeometry>
        </mxCell>
        <mxCell id="bXi78o_w_3qV81OYHnH0-140" value="0..*" style="resizable=0;align=left;verticalAlign=bottom;labelBackgroundColor=none;fontSize=12;" connectable="0" vertex="1" parent="bXi78o_w_3qV81OYHnH0-139">
          <mxGeometry x="-1" relative="1" as="geometry">
            <mxPoint x="2" y="20" as="offset" />
          </mxGeometry>
        </mxCell>
        <mxCell id="bXi78o_w_3qV81OYHnH0-141" value="1..1" style="resizable=0;align=right;verticalAlign=bottom;labelBackgroundColor=none;fontSize=12;" connectable="0" vertex="1" parent="bXi78o_w_3qV81OYHnH0-139">
          <mxGeometry x="1" relative="1" as="geometry">
            <mxPoint x="-10" as="offset" />
          </mxGeometry>
        </mxCell>
        <mxCell id="bXi78o_w_3qV81OYHnH0-142" value="limited by" style="text;html=1;resizable=0;points=[];;align=center;verticalAlign=middle;labelBackgroundColor=none;rounded=0;shadow=0;strokeWidth=1;fontSize=12;" vertex="1" connectable="0" parent="bXi78o_w_3qV81OYHnH0-139">
          <mxGeometry x="0.5" y="49" relative="1" as="geometry">
            <mxPoint x="-55" y="36" as="offset" />
          </mxGeometry>
        </mxCell>
        <mxCell id="bXi78o_w_3qV81OYHnH0-143" value="&lt;font style=&quot;font-size: 9px&quot;&gt;Extends&lt;/font&gt;" style="endArrow=block;endSize=16;endFill=0;html=1;" edge="1" parent="WIyWlLk6GJQsqaUBKTNV-1" source="bXi78o_w_3qV81OYHnH0-138" target="bXi78o_w_3qV81OYHnH0-38">
          <mxGeometry x="-0.7674" y="-3" width="160" relative="1" as="geometry">
            <mxPoint x="719" y="380" as="sourcePoint" />
            <mxPoint x="719" y="310" as="targetPoint" />
            <Array as="points">
              <mxPoint x="470" y="370" />
              <mxPoint x="470" />
            </Array>
            <mxPoint as="offset" />
          </mxGeometry>
        </mxCell>
        <mxCell id="bXi78o_w_3qV81OYHnH0-144" value="" style="endArrow=open;shadow=0;strokeWidth=1;rounded=0;endFill=1;edgeStyle=elbowEdgeStyle;elbow=vertical;" edge="1" parent="WIyWlLk6GJQsqaUBKTNV-1" source="bXi78o_w_3qV81OYHnH0-138" target="bXi78o_w_3qV81OYHnH0-38">
          <mxGeometry x="0.5" y="41" relative="1" as="geometry">
            <mxPoint x="799" y="435" as="sourcePoint" />
            <mxPoint x="799" y="250" as="targetPoint" />
            <mxPoint x="-40" y="32" as="offset" />
            <Array as="points">
              <mxPoint x="600" y="340" />
              <mxPoint x="610" y="60" />
              <mxPoint x="860" y="250" />
              <mxPoint x="860" y="290" />
              <mxPoint x="871" y="270" />
              <mxPoint x="871" y="260" />
              <mxPoint x="1001.3299999999999" y="260" />
              <mxPoint x="981.3299999999999" y="240" />
              <mxPoint x="971.33" y="260" />
            </Array>
          </mxGeometry>
        </mxCell>
        <mxCell id="bXi78o_w_3qV81OYHnH0-145" value="0..*" style="resizable=0;align=left;verticalAlign=bottom;labelBackgroundColor=none;fontSize=12;" connectable="0" vertex="1" parent="bXi78o_w_3qV81OYHnH0-144">
          <mxGeometry x="-1" relative="1" as="geometry">
            <mxPoint x="-20" as="offset" />
          </mxGeometry>
        </mxCell>
        <mxCell id="bXi78o_w_3qV81OYHnH0-146" value="1..1" style="resizable=0;align=right;verticalAlign=bottom;labelBackgroundColor=none;fontSize=12;" connectable="0" vertex="1" parent="bXi78o_w_3qV81OYHnH0-144">
          <mxGeometry x="1" relative="1" as="geometry">
            <mxPoint y="16" as="offset" />
          </mxGeometry>
        </mxCell>
        <mxCell id="bXi78o_w_3qV81OYHnH0-147" value="grouped by" style="text;html=1;resizable=0;points=[];;align=center;verticalAlign=middle;labelBackgroundColor=none;rounded=0;shadow=0;strokeWidth=1;fontSize=9;" vertex="1" connectable="0" parent="bXi78o_w_3qV81OYHnH0-144">
          <mxGeometry x="0.5" y="49" relative="1" as="geometry">
            <mxPoint x="49" y="220" as="offset" />
          </mxGeometry>
        </mxCell>
      </root>
    </mxGraphModel>
  </diagram>
</mxfile>
